<?xml version="1.0" encoding="utf-8"?>
<!-- Generator: Adobe Illustrator 18.1.1, SVG Export Plug-In . SVG Version: 6.00 Build 0)  -->
<svg version="1.1" id="Layer_1" xmlns="http://www.w3.org/2000/svg" xmlns:xlink="http://www.w3.org/1999/xlink" x="0px" y="0px"
	 viewBox="0 0 160 160" enable-background="new 0 0 160 160" xml:space="preserve">
<g>
	<path fill="#CCCCCC" d="M80,0C35.8,0,0,35.8,0,80s35.8,80,80,80s80-35.8,80-80S124.2,0,80,0z M95.6,55.6c1.2-4.2,2.8-8,4.6-12
		c3.6-7.4,7.4-14.8,11.4-21.8c0.2-0.4,0.4-0.6,0.6-1c0.2-0.2,0.4-0.4,0.6-0.2c3,1.8,6,3.6,8.8,5.8c2.6,2,5,4.2,7.2,6.6
		c0.6,0.6,0.6,0.8,0,1.2c-2.2,1.8-4.4,3.4-6.6,5.2C119,42.2,116,45,113,48c-3.4,3.2-6.6,6.6-10,9.8c-1.8,1.6-3.8,3.2-5.8,4.4
		c-0.8,0.4-1,0.4-1.8-0.2c-1-0.8-1-1-1-3.2C95,58.2,95.4,57,95.6,55.6z M72.6,12.4c1.4-0.2,2.8-0.2,4-0.4c0.6,0,1.4,0,2,0s1.4,0,2,0
		l0,0c2.4,0.2,5,0.4,7.4,0.6c1.4,0.2,2.8,0.4,4.2,0.6c0.6,0,0.8,0.4,0.6,1c-0.8,3-1.6,5.8-2.4,8.8c-0.8,3.4-1.4,6.6-2,10
		c-1,4.8-1.6,9.8-2.8,14.6c-0.6,2.2-1.4,4.4-2.8,6.2c-0.6,0.8-1.2,1.4-1.8,2c-0.6,0.4-1.4,0.6-2,0.4c-0.4-0.2-0.6-0.6-0.6-1
		c-0.4-1.2-0.8-2.4-1-3.6c-0.8-3.6-1.4-7-2-10.6s-1.2-7.4-1.8-11c-0.6-3.4-1-6.8-1.4-10.2c-0.2-2-0.6-3.8-0.8-5.8
		C71.4,12.8,71.4,12.6,72.6,12.4z M88,79.8c0,4.4-3.6,8-8,8s-8-3.6-8-8s3.6-8,8-8S88,75.4,88,79.8z M72.4,68.8c0,2.8-2.2,5-5,5
		s-5-2.2-5-5s2.2-5,5-5S72.4,66,72.4,68.8z M70.6,88.4c0,2.8-2.2,5-5,5s-5-2.2-5-5s2.2-5,5-5S70.6,85.6,70.6,88.4z M33.8,30.2
		c2.2-2,4.4-3.8,6.8-5.6l3-2c2.4-1.4,4.8-2.6,7.2-4c0.6-0.4,0.8-0.2,1,0.4c1.2,3,2.2,6,3.4,9c2.2,5.2,4.8,10.2,7.4,15.4
		c1.6,3.2,3,6.4,4.4,9.6c0.6,1.6,1,3.2,1.6,5c0.2,0.4,0,1-0.4,1.2s-1,0.6-1.4,0.6c-1.6-0.2-2.6-0.6-3.8-1.4c-4-2.4-7.6-5.4-10.8-8.6
		c-6-5.6-11.6-11.6-17.2-17.6c-0.4-0.4-0.8-1-1.2-1.4C33.4,30.6,33.4,30.4,33.8,30.2z M13.4,66.2C14,63,15,59.8,16,56.6
		c1.2-3.2,2.4-6.2,4.2-9c0.4-0.6,0.6-0.6,1.2-0.4c1.8,1.2,3.4,2.2,5.2,3.4c5,3.2,10.2,5.8,15.2,8.6c3,1.6,6,3.4,9,5.2
		c1.8,1,3.4,2.4,4.8,4c0.6,0.8,1.2,1.8,1.6,2.8c0.4,0.6,0.2,1.4-0.2,2c-0.2,0.2-0.6,0.4-1,0.4s-0.6,0-1,0l0,0c-2-0.2-4-0.2-6.2-0.6
		c-4.2-0.6-8.2-1.2-12.4-1.8c-5-0.8-10-1.6-15-2.6c-2.4-0.4-4.8-0.8-7.2-1.4C13,67.4,13.2,67.2,13.4,66.2z M20.2,108.4
		c-0.4,0.2-0.8,0.4-1.2,0.4c-0.4,0.2-0.6,0-0.8-0.4c-1.6-3.6-3-7.4-4-11.4c-0.6-2.8-1-5.4-1.6-8.2c-0.2-0.6,0.2-0.8,0.6-0.8
		c2.2,0,4.4,0,6.6-0.2c2-0.2,4.2-0.4,6.2-0.6s3.8-0.4,5.8-0.8c2.2-0.2,4.2-0.6,6.4-1s4.4-0.6,6.6-1c1.6-0.2,3.2-0.4,5-0.6
		c0.8,0,1.4,0,2.2,0l0,0c1.2,0,2.4,0.2,3.6,0.2c0.6,0,0.8,0.4,1,0.8c0.4,1.4,0,2.4-1,3.4c-1.4,1.2-2.8,2.6-4.4,3.6
		c-4.6,3.4-9.6,6-14.8,8.6C31,103.2,25.6,105.8,20.2,108.4z M66.2,101.2c-0.8,2-1.4,4-2.4,6c-2.6,5.2-5.2,10.6-7.8,15.8
		c-2.6,5-5.4,10.2-8,15.2c-0.2,0.4-0.4,0.8-0.8,1.2c-0.2,0.4-0.6,0.4-1,0.2c-1.6-1-3.2-2-4.8-3c-4-2.8-7.8-5.8-11-9.4
		c-0.6-0.6-0.6-1,0-1.6c2.4-2,5-4,7.4-6.2c3.6-3.4,7.2-6.8,10.8-10.2c2.2-2.2,4.6-4.2,6.8-6.2c1.8-1.4,3.8-2.8,6-3.4
		c0.8-0.2,1.6-0.4,2.4-0.6c0.8,0.2,1.4,0.4,1.8,0.8C66.4,100.4,66.4,100.8,66.2,101.2z M87.8,147.8c-2.6,0.2-5.2,0.4-7.4,0.6
		c-2.4-0.2-4.4-0.2-6.4-0.4c-2.2-0.2-4.2-0.6-6.4-0.8c-0.6,0-0.8-0.4-0.6-1c0.8-2.8,1.6-5.8,2.4-8.6c0.8-3.4,1.4-6.6,2-10
		c0.8-5,1.6-10,2.6-14.8c0.4-2.6,1.2-5.2,2.4-7.6c0.2-0.6,0.6-0.8,1.2-0.8c1.4-0.2,2.2,0.8,2.8,1.8c0.8,1.8,1.6,3.6,2.2,5.4
		c1.4,4,2.2,8.2,2.8,12.2c0.6,3.6,1.2,7.4,1.8,11c0.4,2.8,0.8,5.6,1.2,8.4c0.2,1.2,0.2,2.6,0.4,3.8
		C88.6,147.6,88.4,147.8,87.8,147.8z M83.8,101c-2.8,0-5-2.2-5-5s2.2-5,5-5s5,2.2,5,5S86.6,101,83.8,101z M86.6,69.4
		c-2.8,0-5-2.2-5-5s2.2-5,5-5s5,2.2,5,5C91.6,67.2,89.4,69.4,86.6,69.4z M96.6,76.2c2.8,0,5,2.2,5,5s-2.2,5-5,5s-5-2.2-5-5
		C91.6,78.6,93.8,76.2,96.6,76.2z M126,130.4c-4.4,4.2-9.4,7.6-14.8,10.4c-0.6,0.4-1.2,0.6-1.8,1c-0.8,0.4-1,0.2-1.2-0.6
		c-1-2.8-2-5.6-3.2-8.2c-2.2-4.8-4.6-9.6-6.8-14.6c-1.2-2.8-2.6-5.4-3.8-8.2c-0.8-2-1.4-4.2-1.4-6.6c0-0.6,0.2-1.4,0.2-2.2
		c0.2-0.8,0.6-1.4,1.4-1.6c0.2-0.2,0.8,0,1,0.2c1,0.6,1.8,1.2,2.8,2c3.4,2.6,6.4,5.6,9.4,8.6c5.4,5.4,10.8,10.8,16.2,16.4
		c0.8,0.8,1.6,1.8,2.4,2.6C126.6,129.8,126.4,129.8,126,130.4z M146.8,93.4c-1,4.4-2,8.6-3.8,12.6c-1,2.2-2,4.4-3,6.6
		c-0.4,0.6-0.6,0.6-1.2,0.2c-2.8-1.8-5.8-3.8-8.6-5.6c-4.8-3-10-5.4-15.2-8.2c-3.2-1.6-6.2-3.2-9.2-5c-1.2-0.8-2.4-1.8-3.4-2.6
		c-0.4-0.4-0.6-0.8-0.4-1.4c0.4-1.4,1.4-2,2.6-2c2-0.4,4.2-0.4,6.2-0.6c0,0,0,0,0,0.2c3.6,0,7,0.4,10.4,0.8c4.6,0.6,9.4,1.4,14,2.2
		c3.4,0.6,6.8,1.2,10,2c0.4,0,0.6,0.2,1,0.2C146.8,92.8,146.8,93,146.8,93.4z M147,72.2c-1.4,0-3,0-4.4,0.2
		c-2.2,0.2-4.2,0.2-6.4,0.4c-1.8,0.2-3.6,0.4-5.4,0.6c-2,0.2-4,0.6-6,0.8c-2,0.2-4,0.6-6,0.8c-1.6,0.2-3.2,0.4-4.8,0.6
		c-1,0-2.2,0-3.2,0c-2.4,0-4.6-0.2-6.8-1.4c-0.8-0.4-1.2-1-1.4-1.8c-0.2-0.4,0.2-0.8,0.6-1c0.8-0.6,1.6-1.2,2.4-1.6
		c4.2-2.8,8.6-5,13-7.2c6.8-3.4,13.8-6.8,20.6-10.2c0.6-0.2,1.2-0.4,1.8-0.6c0.4-0.2,0.6,0,0.8,0.4c1.8,3.6,3,7.4,4,11.4
		c0.6,2.6,1,5.2,1.6,7.8c0,0.2,0,0.4,0,0.6C147.4,72,147.4,72.2,147,72.2z"/>
</g>
</svg>
