<?xml version="1.0" encoding="utf-8"?>
<!-- Generator: Adobe Illustrator 18.1.1, SVG Export Plug-In . SVG Version: 6.00 Build 0)  -->
<svg version="1.1" id="Layer_1" xmlns="http://www.w3.org/2000/svg" xmlns:xlink="http://www.w3.org/1999/xlink" x="0px" y="0px"
	 viewBox="0 0 160 160" enable-background="new 0 0 160 160" xml:space="preserve">
<g>
	<path fill="#CCCCCC" d="M80,10c-38.6,0-70,31.4-70,70s31.4,70,70,70s70-31.4,70-70S118.6,10,80,10z M126.8,46.4
		c0.6-0.2,1-0.2,1.4,0.2c0.2,0.2,0.6,0.6,0.8,1c1,1.6,1.8,3,2.8,4.6c0.2,0.4,0.4,0.8,0.4,1.2c0,0.6-0.4,0.8-0.6,1
		c-0.6,0.4-1.2,0.8-1.8,1.2c-7.6,4-15.4,8-23.2,11.4c-1.6,0.6-3.2,1.2-4.6,1.8c-1.4,0.4-1.8-0.2-2.2-1.2c-0.2-0.6,0.2-1,0.4-1.4
		c0.8-0.8,1.8-1.6,2.6-2.6c4-3.6,8.4-6.6,12.8-9.8c3.2-2.2,6.4-4.4,9.6-6.8C125.8,47,126.4,46.8,126.8,46.4z M100.8,81
		c0,2.6-2.2,4.8-4.8,4.8c-2.6,0-4.8-2.2-4.8-4.8s2.2-4.8,4.8-4.8C98.6,76.2,100.8,78.4,100.8,81z M82.6,21.4c0.2,0,0.4,0,0.8,0l0,0
		c2.2,0.2,4.4,0.6,6.6,0.8c3.6,0.6,7,1.4,10.4,2.8c4.2,1.6,8.2,3.4,11.8,5.8c3,2,5.8,4.2,8.4,6.6c0.6,0.6,0.6,1,0,1.6
		c-2.2,1.6-4.2,3.4-6.4,5c-5.6,4-11.2,8-16.8,12c-1,0.8-2.2,1.4-3.4,2.2c-0.8,0.4-1.4,0.6-2.4,0.2c-1.2-0.6-2.2-1-3.4-1.4
		c-0.8-0.4-1.4-1-1.6-1.8c-0.6-3.8-1.4-7.6-2-11.4c-0.6-3.4-1-6.8-1.6-10.2c-0.4-2.6-0.8-5.2-1-7.6c-0.2-1.2-0.2-2.2-0.2-3.4
		C81.6,21.6,81.8,21.4,82.6,21.4z M86.4,60.2c2.6,0,4.8,2.2,4.8,4.8s-2.2,4.8-4.8,4.8c-2.6,0-4.8-2.2-4.8-4.8S83.6,60.2,86.4,60.2z
		 M80,72c4.2,0,7.8,3.4,7.8,7.8s-3.4,7.8-7.8,7.8s-7.8-3.4-7.8-7.8S75.8,72,80,72z M88.4,95.4c0,2.6-2.2,4.8-4.8,4.8
		c-2.6,0-4.8-2.2-4.8-4.8c0-2.6,2.2-4.8,4.8-4.8C86.4,90.6,88.4,92.8,88.4,95.4z M68,74c-2.6,0-4.8-2.2-4.8-4.8s2.2-4.8,4.8-4.8
		s4.8,2.2,4.8,4.8C72.8,72,70.6,74,68,74z M71.2,88c0,2.6-2.2,4.8-4.8,4.8s-4.8-2.2-4.8-4.8c0-2.6,2.2-4.8,4.8-4.8
		S71.2,85.4,71.2,88z M63.2,23.8c0.8-0.4,1.6-0.6,2.4-0.8l2.4-0.4c0.6-0.2,1.2-0.2,1.8-0.4c1-0.2,1.6,0.2,1.8,1
		c0.4,1.6,0.8,3.2,1,4.8c0.4,2.6,0.8,5,1.2,7.6c0.4,2.4,0.6,4.6,1,7c0.2,1.8,0.6,3.8,0.8,5.6c0.2,2.2,0.4,4.2,0.4,6.4l0,0
		c0,0.6,0,1.2,0,1.8s-0.4,1-1,1.2c-1.2,0.4-1.6,0.2-2.2-1c-1.6-3.4-3-7-4.2-10.8c-2-6-3.8-12-5.6-18c-0.2-0.8-0.4-1.6-0.6-2.4
		C62.4,24.6,62.6,24.2,63.2,23.8z M25,59.4c2-5.2,4.6-10.2,8-14.6c5-6.6,11.4-12,18.6-16.2c0.8-0.4,1.2-0.4,1.6,0.6
		c0.8,2.2,1.6,4.4,2.4,6.6c2,6.6,4.2,13,6.2,19.6c0.6,1.8,1,3.6,1.4,5.6c0.2,0.6,0,1-0.4,1.4c-1,1.2-2,2.4-3.2,3.6
		c-0.4,0.4-0.8,0.6-1.4,0.6c-1.4-0.2-2.8-0.4-4.4-0.6c-2.4-0.4-4.6-0.8-7-1c-2.6-0.4-5.2-0.8-7.6-1.2c-2.6-0.4-5.4-0.8-8-1.4
		c-1.8-0.4-3.6-0.8-5.4-1.2C24.8,60.6,24.6,60.2,25,59.4z M21.2,78.2c0-0.6,0-1.2,0-1.8c0.2-1.4,0.2-3,0.4-4.4
		c0.2-1,0.6-1.6,1.8-1.4c1.4,0.2,2.6,0.2,4,0.4c1.8,0.2,3.6,0.6,5.2,0.8c2.2,0.4,4.2,0.6,6.4,1c2.4,0.4,4.8,0.8,7,1.2
		c3.2,0.6,6.4,1.4,9.4,2.4c0.2,0,0.4,0.2,0.6,0.4c0.4,0.2,0.6,0.6,0.6,1c0,1.2-0.4,1.6-1.6,1.8c-6,0.8-12,0.6-19.4,0.6
		c-2.6,0-6.4-0.2-10.2-0.2c-1,0-2-0.2-3-0.2S21.2,79.2,21.2,78.2z M44.8,126.2c-0.4,0.6-0.8,0.6-1.4,0.2c-1-0.8-1.8-1.6-2.8-2.4
		c-4.4-3.8-8-8.2-11-13.2c-3.2-5.4-5.6-11-7-17.2c-0.2-0.8-0.4-1.6-0.6-2.4c0-0.8,0.2-1.2,1-1.2c1,0,1.8-0.2,2.8-0.2c4,0,8,0,12,0
		l0,0c3.8,0,7.6,0,11.4,0.2c2.4,0,4.6,0.2,7,0.4c0.8,0,1.4,0.4,1.8,1.2c0.6,1,1.2,2.2,2,3.2c0.4,0.8,0.6,1.6,0.2,2.4
		c-1.8,3.6-3.6,7.4-5.4,11c-2.8,5.4-5.8,10.8-8.6,16.4C45.4,125,45.2,125.6,44.8,126.2z M66,123.8c-1.2,3.4-2.4,6.8-3.6,10.2
		c0,0.2-0.2,0.4-0.2,0.6c-0.6,1-1,1.4-2.2,1c-1.6-0.6-3-1.2-4.6-1.8c-0.6-0.2-1-0.4-1.4-0.8c-0.8-0.4-1-1-0.6-1.8
		c0.8-1.8,1.4-3.4,2.4-5.2c3.2-6,6.4-12.2,9.6-18.2c1-1.8,2.4-3.6,3.6-5.4c0-0.2,0.2-0.2,0.2-0.4c0.6-0.8,1.8-1,2.6,0
		c0.2,0.2,0.2,0.6,0.4,1c-0.4,1.4-0.6,2.8-1,4.2C69.8,113,67.8,118.4,66,123.8z M112.6,129.2c-0.6,0.4-1,0.8-1.6,1
		c-5.4,3.4-11.4,5.8-17.6,7.2c-2.6,0.6-5.2,1-8,1.2c-1.8,0.2-3.6,0.2-5.8,0.4c-2.2-0.2-4.6-0.4-7-0.6c-0.8,0-1.2-0.6-1-1.4
		c0.8-3,1.8-6,2.6-8.8c2-5.8,4-11.6,6-17.4c0.6-1.6,1.2-3,1.8-4.6c0.4-1,1-1.4,1.8-1.6c1.4-0.2,2.6-0.6,3.8-0.8
		c0.8-0.2,1.2,0,1.8,0.6c1.2,1.2,2.6,2.2,3.8,3.4c6,6.2,12,12.2,18.2,18.4c0.4,0.4,0.8,1,1.2,1.6
		C113.2,128.4,113.2,128.8,112.6,129.2z M126.8,116c-0.4,0.6-1,1.4-1.6,2c-0.8,1-1.8,2-2.6,3c-0.4,0.4-0.8,0.8-1.6,0.8
		c-0.2-0.2-0.6-0.2-0.8-0.6c-1-0.8-1.8-1.6-2.8-2.4c-5.4-5.2-10.6-10.6-15.8-16.2c-1.4-1.6-2.6-3.2-4-4.8l-0.2-0.2
		c-0.6-1-0.4-2,0.6-2.4c0.4-0.2,1,0,1.4,0.2c1,0.6,2,1.2,3.2,1.8c3.8,2.2,7.2,4.8,10.8,7.4c4,3,8,6,11.8,9c0.4,0.4,0.8,0.8,1.2,1.2
		C127.2,114.8,127.2,115.4,126.8,116z M133.6,105c0,0.2-0.2,0.2-0.2,0.4c-0.4,0.8-0.8,1-1.6,0.4c-2-1.2-3.8-2.6-5.8-4
		c-5.6-4.2-11.2-8.2-16.8-12.4c-1.2-1-2.4-2-3.6-2.8c-0.8-0.6-1.2-1.4-1-2.4c0.2-1.2,0.2-2.4,0.4-3.6c0-0.8,0.4-1.4,1.2-2
		c1.4-0.8,3-1.8,4.4-2.6c7.6-3.8,15.4-7.6,23-11.6c0.6-0.2,1.2-0.6,1.8-0.8c0.6-0.2,1,0,1.2,0.6c0.2,1,0.6,2,0.8,3
		c0.4,2.2,0.8,4.6,1.2,6.8c0.2,2.2,0.2,4.6,0.4,7c-0.2,2.4-0.4,4.8-0.8,7.4C137.6,94.4,135.8,99.8,133.6,105z"/>
</g>
</svg>
